# xmcd
#
# Track frame offsets: 
#        150
#        20420
#        43762
#        58169
#        72230
#        88086
#        106300
#        127738
#
# Disc length: 1952 seconds
#
# Revision: 0
# Processed by: cddbd v1.5.2PL0 Copyright (c) Steve Scherf et al.
# Submitted via: ExactAudioCopy v1.3
#
DISCID=67079e08
DTITLE=Preacher Boy - Country Blues
DYEAR=2016
DGENRE=Blues
TTITLE0=If I Had Possession Over Judgement Day
TTITLE1=Fixin' To Die
TTITLE2=Spoonful Blues
TTITLE3=Stagolee
TTITLE4=Maggie Campbell
TTITLE5=Shake 'Em On Down
TTITLE6=Death Don't Have No Mercy
TTITLE7=Jesus, Make Up My Dyin' Bed
EXTD=
EXTT0=
EXTT1=
EXTT2=
EXTT3=
EXTT4=
EXTT5=
EXTT6=
EXTT7=
PLAYORDER=
